<?xml version="1.0" encoding="utf-8"?>
<!-- Generator: Adobe Illustrator 19.0.1, SVG Export Plug-In . SVG Version: 6.00 Build 0)  -->
<svg version="1.1" xmlns="http://www.w3.org/2000/svg" xmlns:xlink="http://www.w3.org/1999/xlink" x="0px" y="0px"
	 viewBox="-182 273 247 247" style="enable-background:new -182 273 247 247;" xml:space="preserve">
<style type="text/css">
	.st0{fill:none;enable-background:new    ;}
	.st1{fill:#FEFEFE;}
	.st2{fill:#F7911E;}
	.st3{fill:#D0379C;}
	.st4{fill:#3F9FFC;}
	.st5{fill:#4FBF4A;}
	.st6{fill:#CA1F13;}
	.st7{fill:#35239A;}
	.st8{fill:#147749;}
</style>
<g id="Слой_1">
	<path class="st0" d="z"/>
</g>
<g id="Слой_2">
	<path class="st1" d="M5.1,495.5h-126.6c-22.7,0-41-18.4-41-41V328.5c0-22.7,18.4-41,41-41H5.1c22.7,0,41,18.4,41,41v125.9
		C46.1,477.1,27.7,495.5,5.1,495.5z"/>
	<path class="st2" d="M-56.5,376.9h-33.7c-6.7,0-12.2-5.4-12.2-12.2v-33.5c0-6.7,5.4-12.2,12.2-12.2h33.7c6.7,0,12.2,5.4,12.2,12.2
		v33.5C-44.3,371.4-49.8,376.9-56.5,376.9z"/>
	<path class="st3" d="M-27.5,405.8h-33.7c-6.7,0-12.2-5.4-12.2-12.2v-33.5c0-6.7,5.4-12.2,12.2-12.2h33.7c6.7,0,12.2,5.4,12.2,12.2
		v33.5C-15.3,400.4-20.8,405.8-27.5,405.8z"/>
	<path class="st4" d="M-57,434.8h-33.7c-6.7,0-12.2-5.4-12.2-12.2V389c0-6.7,5.4-12.2,12.2-12.2H-57c6.7,0,12.2,5.4,12.2,12.2v33.5
		C-44.8,429.3-50.3,434.8-57,434.8z"/>
	<path class="st5" d="M-26.8,464.4h-34.4c-6.7,0-12.2-5.4-12.2-12.2V418c0-6.7,5.4-12.2,12.2-12.2h34.4c6.7,0,12.2,5.4,12.2,12.2
		v34.2C-14.6,458.9-20,464.4-26.8,464.4z"/>
	<path class="st6" d="M-61.2,347.9c-6.7,0-12.2,5.4-12.2,12.2v16.8h16.8c6.7,0,12.2-5.4,12.2-12.2v-16.8H-61.2z"/>
	<path class="st7" d="M-57,376.9h-16.3v16.8c0,6.7,5.4,12.2,12.2,12.2h16.3V389C-44.8,382.3-50.3,376.9-57,376.9z"/>
	<path class="st8" d="M-61.1,405.8c-6.7,0-12.2,5.4-12.2,12.2v16.8H-57c6.7,0,12.2-5.4,12.2-12.2v-16.8H-61.1z"/>
</g>
</svg>
